<svg width="110" height="20" viewBox="0 0 110 20" fill="none" xmlns="http://www.w3.org/2000/svg">
<path fill-rule="evenodd" clip-rule="evenodd" d="M0 19.995L19.2145 3.99479C19.4499 3.78958 19.6406 3.53821 19.7748 3.25625C19.909 2.9743 19.9838 2.66779 19.9946 2.35572C20.0055 2.04365 19.9521 1.73268 19.8378 1.4421C19.7234 1.15152 19.5506 0.887524 19.3301 0.666485C19.109 0.445461 18.8448 0.272261 18.5539 0.157672C18.263 0.0430839 17.9517 -0.0104445 17.6392 0.000394262C17.3268 0.011233 17.0199 0.0862093 16.7376 0.220679C16.4554 0.355148 16.2038 0.546227 15.9986 0.782041L0 19.995ZM9.26845 2.95158L1.17889 9.01824L7.24606 0.929357C7.37015 0.763972 7.52831 0.627159 7.70983 0.52815C7.89135 0.429142 8.09206 0.370248 8.2983 0.355459C8.50455 0.34067 8.71154 0.370326 8.90533 0.442422C9.09912 0.514518 9.27516 0.627376 9.42158 0.773364C9.56824 0.919601 9.68173 1.09566 9.75436 1.2896C9.827 1.48355 9.85706 1.69085 9.84253 1.89744C9.82801 2.10403 9.76927 2.30508 9.67022 2.48696C9.57116 2.66884 9.43412 2.82729 9.26845 2.95158ZM19.0635 12.7485L10.974 18.8152L17.0411 10.7263C17.1652 10.5609 17.3234 10.4241 17.5049 10.3251C17.6864 10.2261 17.8871 10.1672 18.0933 10.1524C18.2996 10.1376 18.5065 10.1672 18.7003 10.2393C18.8941 10.3114 19.0702 10.4243 19.2167 10.5703C19.3633 10.7165 19.4768 10.8926 19.5494 11.0865C19.6221 11.2805 19.6521 11.4878 19.6376 11.6944C19.6231 11.9009 19.5643 12.102 19.4652 12.2839C19.3662 12.4658 19.2292 12.6242 19.0635 12.7485Z" fill="white"/>
<path fill-rule="evenodd" clip-rule="evenodd" d="M30.7195 9.99989C30.7195 7.35787 32.9654 5.07009 36.078 5.07009C37.621 5.07009 38.9993 5.63314 39.9796 6.51797C40.0382 6.57084 40.1285 6.56887 40.183 6.51177L42.0574 4.54763C42.1118 4.49054 42.1098 4.4 42.0518 4.34653C40.5036 2.92016 38.3788 2.06934 36.078 2.06934C31.4723 2.06934 27.7188 5.54104 27.7188 9.99989C27.7188 14.4587 31.4723 17.9304 36.078 17.9304C38.1257 17.9304 40.1495 17.2438 41.6487 16.0663L42.1677 15.6586C42.2022 15.6315 42.2224 15.5901 42.2224 15.5463V14.8863V13.5722L42.2224 13.5722V9.99987L42.2224 9.99986L42.2224 9.99986V8.85675C42.2224 8.77783 42.1584 8.71385 42.0795 8.71385H38.283C38.2437 8.71385 38.2061 8.73006 38.1791 8.75866L35.7513 11.3307C35.6652 11.4219 35.7298 11.5717 35.8552 11.5717H39.0787C39.1577 11.5717 39.2216 11.6357 39.2216 11.7146V13.4189L39.2216 13.4189L39.2216 14.0131C39.2216 14.0639 39.1948 14.1109 39.1506 14.1359C38.2798 14.6276 37.1948 14.9297 36.078 14.9297C32.9654 14.9297 30.7195 12.6419 30.7195 9.99989ZM81.7316 2.42662H78.3688C78.2513 2.42662 78.184 2.56067 78.2543 2.65492L83.7352 10.0071C83.7734 10.0583 83.7729 10.1286 83.7342 10.1793L78.2596 17.3436C78.1877 17.4376 78.2548 17.5733 78.3731 17.5733H82.0134C82.0585 17.5733 82.101 17.552 82.1279 17.5158L85.6158 12.8371C85.6729 12.7605 85.7878 12.7605 85.8449 12.8371L89.3327 17.5158C89.3597 17.552 89.4022 17.5733 89.4473 17.5733H93.0876C93.2059 17.5733 93.273 17.4376 93.2011 17.3436L87.7265 10.1793C87.6877 10.1286 87.6873 10.0583 87.7255 10.0071L93.2064 2.65492C93.2767 2.56067 93.2094 2.42662 93.0918 2.42662H89.729C89.6845 2.42662 89.6425 2.44738 89.6155 2.48276L85.8439 7.41847C85.7867 7.49331 85.674 7.49331 85.6168 7.41847L81.8452 2.48276C81.8181 2.44738 81.7762 2.42662 81.7316 2.42662ZM55.2042 2.42648H51.9606C51.9041 2.42648 51.8529 2.45979 51.83 2.51146L45.2407 17.3723C45.1988 17.4668 45.268 17.5731 45.3714 17.5731H48.4872C48.5442 17.5731 48.5958 17.5392 48.6184 17.4869L49.8777 14.5724H57.2871L58.5464 17.4869C58.569 17.5392 58.6206 17.5731 58.6776 17.5731H61.7934C61.8968 17.5731 61.9659 17.4668 61.924 17.3723L55.3348 2.51146C55.3119 2.45979 55.2607 2.42648 55.2042 2.42648ZM56.1139 11.8575H51.0509L53.4512 6.30244C53.5009 6.18749 53.6639 6.18749 53.7135 6.30244L56.1139 11.8575ZM65.5089 2.42655C65.43 2.42655 65.366 2.49053 65.366 2.56945V17.4303C65.366 17.5092 65.43 17.5732 65.5089 17.5732H68.6526L68.655 17.5732H73.8704C73.9141 17.5732 73.9554 17.5532 73.9825 17.5188L75.9003 15.0896C75.9743 14.9959 75.9075 14.8582 75.7881 14.8582H68.7955V2.56945C68.7955 2.49053 68.7315 2.42655 68.6526 2.42655H65.5089ZM109.099 2.42662C109.176 2.42662 109.239 2.4893 109.239 2.56662V4.99662C109.239 5.07394 109.176 5.13662 109.099 5.13662H100.234C100.157 5.13662 100.094 5.1993 100.094 5.27662V8.43103C100.094 8.50835 100.157 8.57103 100.234 8.57103H108.527C108.605 8.57103 108.667 8.63371 108.667 8.71103V11.141C108.667 11.2184 108.605 11.281 108.527 11.281H100.234C100.157 11.281 100.094 11.3437 100.094 11.421V14.7233C100.094 14.8006 100.157 14.8633 100.234 14.8633H109.385C109.462 14.8633 109.525 14.926 109.525 15.0033V17.4333C109.525 17.5106 109.462 17.5733 109.385 17.5733H96.8057C96.7284 17.5733 96.6657 17.5106 96.6657 17.4333V16.4527C96.6657 16.4525 96.6656 16.4524 96.6655 16.4522C96.6654 16.4522 96.6653 16.4521 96.6651 16.4521C96.6648 16.4521 96.6646 16.4519 96.6646 16.4515V3.54991C96.6646 3.54873 96.6655 3.54778 96.6667 3.54778C96.6679 3.54778 96.6688 3.54682 96.6688 3.54564V2.56662C96.6688 2.4893 96.7315 2.42662 96.8088 2.42662H109.099Z" fill="white"/>
</svg>
